<svg xmlns="http://www.w3.org/2000/svg" viewBox="0 0 229 274" role="img" aria-label="Icono máscara de Sutura Teatro">
  <path fill="#fff" d="M112.8 15.8c-36.3.6-70.7 11.5-87.8 41.6C5.8 91.3 8.2 143.1 32.2 190.8c23.5 46.7 55.4 75.6 83.5 79.6 28.6-3.1 64.1-35.3 86.6-82.3 19.3-40.2 22.5-91.8 8.8-128.8-12.5-33.9-46.8-44.4-82.6-43.6-5.1.1-10.4.1-15.7.1Z"/>
  <path fill="#000" fill-rule="evenodd" d="M157.6 99.4c16.9 0 30.6 13.7 30.6 30.6s-13.7 30.6-30.6 30.6S127 146.9 127 130s13.7-30.6 30.6-30.6Zm0 17.8c-7.1 0-12.8 5.7-12.8 12.8s5.7 12.8 12.8 12.8 12.8-5.7 12.8-12.8-5.7-12.8-12.8-12.8Z"/>
  <path fill="none" stroke="#77797b" stroke-linecap="round" stroke-width="1.2" d="M112.9 16.2c.9 42.6 2.1 84.4 2.9 126.8.8 42.7 1.4 84.5 2 126.9"/>
  <path fill="none" stroke="#77797b" stroke-linecap="round" stroke-width="1.05" d="M4.2 129.2h126.1"/>
</svg>
